{
    "asset" : {
        "generator" : "Khronos glTF Blender I/O v1.2.75",
        "version" : "2.0"
    },
    "scene" : 0,
    "scenes" : [
        {
            "name" : "Scene",
            "nodes" : [
                0,
                1
            ]
        }
    ],
    "nodes" : [
        {
            "mesh" : 0,
            "name" : "bone"
        },
        {
            "mesh" : 1,
            "name" : "head"
        }
    ],
    "materials" : [
        {
            "doubleSided" : true,
            "emissiveFactor" : [
                0,
                0,
                0
            ],
            "name" : "Scene_-_Root",
            "pbrMetallicRoughness" : {
                "baseColorFactor" : [
                    1,
                    1,
                    1,
                    1
                ],
                "metallicFactor" : 0,
                "roughnessFactor" : 0.6000000238418579
            }
        }
    ],
    "meshes" : [
        {
            "name" : "Mesh_0.013",
            "primitives" : [
                {
                    "attributes" : {
                        "POSITION" : 0,
                        "NORMAL" : 1,
                        "TEXCOORD_0" : 2
                    },
                    "indices" : 3,
                    "material" : 0
                }
            ]
        },
        {
            "name" : "Mesh_0.008",
            "primitives" : [
                {
                    "attributes" : {
                        "POSITION" : 4,
                        "NORMAL" : 5,
                        "TEXCOORD_0" : 6
                    },
                    "indices" : 7,
                    "material" : 0
                }
            ]
        }
    ],
    "accessors" : [
        {
            "bufferView" : 0,
            "componentType" : 5126,
            "count" : 3211,
            "max" : [
                15.022931098937988,
                8.274627685546875,
                2.455650568008423
            ],
            "min" : [
                -13.438733100891113,
                -19.689714431762695,
                -12.224093437194824
            ],
            "type" : "VEC3"
        },
        {
            "bufferView" : 1,
            "componentType" : 5126,
            "count" : 3211,
            "type" : "VEC3"
        },
        {
            "bufferView" : 2,
            "componentType" : 5126,
            "count" : 3211,
            "type" : "VEC2"
        },
        {
            "bufferView" : 3,
            "componentType" : 5123,
            "count" : 17160,
            "type" : "SCALAR"
        },
        {
            "bufferView" : 4,
            "componentType" : 5126,
            "count" : 16135,
            "max" : [
                15.057299613952637,
                11.335453033447266,
                48.67414474487305
            ],
            "min" : [
                -14.709929466247559,
                -6.43989372253418,
                -2.60579776763916
            ],
            "type" : "VEC3"
        },
        {
            "bufferView" : 5,
            "componentType" : 5126,
            "count" : 16135,
            "type" : "VEC3"
        },
        {
            "bufferView" : 6,
            "componentType" : 5126,
            "count" : 16135,
            "type" : "VEC2"
        },
        {
            "bufferView" : 7,
            "componentType" : 5123,
            "count" : 77658,
            "type" : "SCALAR"
        }
    ],
    "bufferViews" : [
        {
            "buffer" : 0,
            "byteLength" : 38532,
            "byteOffset" : 0
        },
        {
            "buffer" : 0,
            "byteLength" : 38532,
            "byteOffset" : 38532
        },
        {
            "buffer" : 0,
            "byteLength" : 25688,
            "byteOffset" : 77064
        },
        {
            "buffer" : 0,
            "byteLength" : 34320,
            "byteOffset" : 102752
        },
        {
            "buffer" : 0,
            "byteLength" : 193620,
            "byteOffset" : 137072
        },
        {
            "buffer" : 0,
            "byteLength" : 193620,
            "byteOffset" : 330692
        },
        {
            "buffer" : 0,
            "byteLength" : 129080,
            "byteOffset" : 524312
        },
        {
            "buffer" : 0,
            "byteLength" : 155316,
            "byteOffset" : 653392
        }
    ],
    "buffers" : [
        {
            "byteLength" : 808708,
            "uri" : "python.bin"
        }
    ]
}
